# xmcd CD database file
#
# Track frame offsets:
#	150
#	18307
#	39244
#	59083
#	79559
#	102985
#	121604
#	140197
#	157410
#	180103
#	203778
#
# Disc length: 3068 seconds
#
# Revision: 2
# Processed by: cddbd v1.5.2PL0 Copyright (c) Steve Scherf et al.
# Submitted via: CDex 1.70beta2
#
DISCID=8e0bfa0b
DTITLE=CHICKENFOOT - CHICKENFOOT III
DYEAR=2011
DGENRE=Hard Rock
TTITLE0=Last Temptation
TTITLE1=Alright, Alright
TTITLE2=Different Devil
TTITLE3=Up Next
TTITLE4=Lighten Up
TTITLE5=Come Closer
TTITLE6=Three And Half Letters
TTITLE7=Big Foot
TTITLE8=Dubai Blues
TTITLE9=Something Going Wrong
TTITLE10=Soap On A Rope (Live from Phoenix) [Bonus Track]
EXTD=YEAR: 2011
EXTT0=
EXTT1=
EXTT2=
EXTT3=
EXTT4=
EXTT5=
EXTT6=
EXTT7=
EXTT8=
EXTT9=
EXTT10=
PLAYORDER=
